<svg xmlns="http://www.w3.org/2000/svg" width="600" height="500" viewBox="420 205 300 267" version="1.1">
    <path d="M 528.771 203.860 C 524.730 204.244, 521.269 205.166, 520.106 206.168 C 519.040 207.085, 517.906 207.573, 517.585 207.251 C 517.263 206.930, 517 207.218, 517 207.892 C 517 208.566, 516.578 208.857, 516.061 208.538 C 515.545 208.219, 514.717 208.683, 514.222 209.569 C 513.726 210.454, 512.911 211.200, 512.410 211.225 C 510.731 211.309, 507 213.312, 507 214.129 C 507 214.574, 506.319 214.676, 505.487 214.357 C 503.708 213.674, 500.761 215.804, 501.602 217.166 C 501.922 217.682, 500.792 218.630, 499.091 219.272 C 497.391 219.913, 496 220.816, 496 221.278 C 496 221.740, 495.550 221.840, 495 221.500 C 494.450 221.160, 494 221.385, 494 222 C 494 222.615, 493.578 222.857, 493.061 222.538 C 492.545 222.219, 491.758 222.551, 491.311 223.276 C 490.385 224.779, 477 233.345, 477 232.434 C 477 231.688, 469.859 235.898, 468.500 237.445 C 467.406 238.691, 459.954 243.409, 458.750 243.619 C 458.337 243.691, 457.663 243.807, 457.250 243.877 C 456.837 243.947, 454.925 245.353, 453 247 C 451.075 248.647, 449.163 249.996, 448.750 249.998 C 446.982 250.003, 446.420 250.208, 445 251.364 C 444.175 252.036, 442.270 253.201, 440.767 253.953 C 439.264 254.705, 437.126 256.165, 436.017 257.199 C 434.908 258.232, 434 258.749, 434 258.348 C 434 257.946, 433.339 258.491, 432.532 259.559 C 431.724 260.626, 431.049 261.151, 431.032 260.724 C 430.984 259.557, 425 262.890, 425 264.085 C 425 264.653, 424.618 264.882, 424.151 264.594 C 423.685 264.305, 422.231 265.066, 420.921 266.285 C 419.611 267.503, 418.192 268.388, 417.769 268.250 C 417.346 268.113, 417 313.927, 417 370.059 C 417 437.844, 417.336 471.910, 418 471.500 C 418.550 471.160, 419 471.327, 419 471.871 C 419 472.516, 455.308 472.896, 523.350 472.963 C 610.772 473.050, 627.885 472.843, 628.841 471.691 C 629.469 470.935, 629.649 469.948, 629.241 469.498 C 628.834 469.048, 629.007 468.969, 629.627 469.323 C 630.647 469.905, 645.644 460.794, 647.112 458.702 C 647.448 458.222, 648.123 457.877, 648.612 457.935 C 649.100 457.993, 653.775 455.241, 659 451.819 C 664.225 448.398, 668.837 445.689, 669.250 445.799 C 669.663 445.910, 670 445.550, 670 445 C 670 444.450, 670.637 444, 671.417 444 C 672.196 444, 672.983 443.663, 673.167 443.250 C 673.350 442.837, 675.618 441.427, 678.206 440.116 C 680.794 438.804, 683.933 436.779, 685.182 435.616 C 686.431 434.452, 687.464 433.702, 687.477 433.949 C 687.500 434.407, 706.687 423.656, 715.218 418.405 C 717.814 416.807, 719.951 414.937, 719.968 414.250 C 719.986 413.562, 720.337 413.053, 720.750 413.118 C 722.538 413.401, 723.957 412.900, 725.370 411.487 C 726.699 410.158, 726.890 397.946, 726.946 310.921 C 727.002 224.011, 726.825 211.682, 725.505 210.362 C 724.677 209.534, 723.993 209.227, 723.985 209.679 C 723.976 210.130, 723.562 209.857, 723.065 209.070 C 722.567 208.284, 721.111 207.551, 719.830 207.441 C 717.192 207.215, 609.278 205.224, 565.500 204.594 C 560 204.515, 551 204.173, 545.500 203.835 C 540 203.497, 532.472 203.508, 528.771 203.860 M 534.036 209.716 C 528.281 209.913, 523.331 210.446, 523.036 210.900 C 522.741 211.354, 520.700 212.667, 518.500 213.818 L 514.500 215.912 525.500 216.045 C 531.550 216.118, 538.893 216.384, 541.818 216.637 C 546.377 217.032, 547.769 216.697, 551.566 214.299 C 556.729 211.037, 557.105 210, 553.125 210 C 551.544 210, 548.956 209.855, 547.375 209.678 C 545.794 209.501, 539.791 209.518, 534.036 209.716 M 560.624 213.779 L 556.749 216.437 559.624 217.128 C 561.206 217.507, 577.233 218.300, 595.239 218.890 L 627.978 219.963 634.027 216.138 L 640.076 212.314 626.380 211.657 C 618.847 211.296, 601.842 211.027, 588.592 211.060 L 564.500 211.120 560.624 213.779 M 643.644 215.900 L 637.788 219.793 648.144 220.366 C 673.165 221.750, 692.857 222.040, 693.479 221.034 C 693.830 220.465, 695.049 220, 696.187 220 C 697.325 220, 700.786 218.537, 703.878 216.750 L 709.500 213.500 697.500 212.886 C 690.900 212.548, 677.400 212.212, 667.500 212.139 L 649.500 212.006 643.644 215.900 M 709 219.394 C 699.467 225.054, 698.500 225.898, 698.500 228.564 C 698.500 237.369, 700.331 271.720, 700.879 273.202 C 701.440 274.717, 702.776 274.223, 711.261 269.358 L 721 263.774 721 238.387 C 721 224.424, 720.663 213.036, 720.250 213.079 C 719.837 213.123, 714.775 215.964, 709 219.394 M 510.500 220.806 C 507.610 221.028, 502.415 223.524, 491.774 229.806 C 483.674 234.588, 477.037 238.858, 477.024 239.297 C 477.011 239.735, 485.545 240.021, 495.989 239.933 L 514.978 239.774 527.412 231.137 C 534.250 226.387, 539.543 222.197, 539.173 221.826 C 538.433 221.086, 516.871 220.318, 510.500 220.806 M 536.161 230.821 L 523.823 239.500 529.661 240.229 C 532.873 240.631, 548.203 241.466, 563.728 242.087 L 591.957 243.215 605.703 234.357 L 619.449 225.500 612.475 224.864 C 608.639 224.515, 594.925 223.938, 582 223.582 C 569.075 223.226, 556.250 222.756, 553.500 222.538 C 548.602 222.149, 548.249 222.318, 536.161 230.821 M 615.833 233.721 C 608.316 238.526, 602.335 242.733, 602.542 243.068 C 602.750 243.404, 613.582 243.979, 626.615 244.346 C 639.648 244.713, 650.804 245.409, 651.406 245.892 C 652.097 246.448, 658.265 243.407, 668.153 237.636 L 683.807 228.500 680.153 227.863 C 678.144 227.513, 667.050 226.928, 655.500 226.564 C 643.950 226.200, 633.375 225.696, 632 225.443 C 630.115 225.097, 626.136 227.134, 615.833 233.721 M 672.727 240.722 L 652.953 252.247 653.614 276.873 C 653.978 290.418, 654.403 301.652, 654.559 301.838 C 654.909 302.255, 693.044 280.183, 694.670 278.623 C 695.563 277.766, 695.528 271.865, 694.522 253.685 C 693.797 240.587, 693.046 229.719, 692.852 229.534 C 692.658 229.349, 683.602 234.383, 672.727 240.722 M 449.308 255.603 L 430.524 267 452.639 267 C 471.078 267, 474.962 266.751, 476 265.500 C 476.685 264.675, 477.912 264, 478.728 264 C 480.291 264, 507.297 245.621, 506.160 245.332 C 505.797 245.240, 497.083 244.949, 486.796 244.686 L 468.092 244.207 449.308 255.603 M 499.861 256.233 L 485.223 266.500 520.026 266.763 L 554.830 267.025 569.299 257.763 L 583.768 248.500 575.656 247.871 C 571.195 247.525, 555.609 246.955, 541.022 246.604 L 514.500 245.966 499.861 256.233 M 579.106 257.350 L 564.833 266.500 591.324 266.766 L 617.815 267.032 631.990 258.766 L 646.164 250.500 637.832 249.850 C 633.249 249.492, 621.373 248.975, 611.440 248.700 L 593.380 248.200 579.106 257.350 M 634.750 262.947 L 622 270.456 622 295.827 L 622 321.198 625.250 319.302 C 627.038 318.259, 633.112 314.737, 638.750 311.475 L 649 305.544 648.894 289.022 C 648.836 279.935, 648.498 268.661, 648.144 263.969 L 647.500 255.438 634.750 262.947 M 710.802 275.333 C 706.017 278.175, 701.838 280.779, 701.514 281.120 C 700.944 281.721, 703.446 339.113, 704.593 351.759 L 705.161 358.017 713.081 353.897 L 721 349.777 721 309.889 C 721 287.950, 720.663 270.037, 720.250 270.083 C 719.837 270.129, 715.586 272.492, 710.802 275.333 M 423 299.609 L 423 327.218 448.918 326.858 C 463.173 326.660, 475.210 326.123, 475.668 325.666 C 476.730 324.604, 476.763 280.739, 475.705 275.750 L 474.909 272 448.955 272 L 423 272 423 299.609 M 481.991 293.750 C 481.987 305.712, 481.699 317.863, 481.352 320.750 L 480.721 326 518.329 326 L 555.936 326 556.218 299.415 C 556.373 284.794, 556.312 272.644, 556.083 272.415 C 555.854 272.187, 539.092 272, 518.833 272 L 482 272 481.991 293.750 M 561.655 285.658 C 561.295 293.170, 561 305.381, 561 312.794 L 561 326.272 565.640 325.636 C 568.191 325.286, 580.791 325, 593.640 325 L 617 325 617 298.500 L 617 272 589.655 272 L 562.310 272 561.655 285.658 M 674.777 296.308 C 657.059 306.620, 654.117 308.668, 654.483 310.434 C 654.719 311.570, 655.209 328.587, 655.572 348.250 C 655.935 367.913, 656.429 384, 656.669 384 C 657.326 384, 698.379 361.905, 699.279 361.066 C 700.016 360.381, 697.765 309.870, 696.218 292.374 L 695.500 284.248 674.777 296.308 M 636 318.887 L 622.500 326.716 622.238 364.358 C 622.094 385.061, 622.264 402, 622.616 402 C 622.967 402, 629.493 398.738, 637.118 394.750 L 650.980 387.500 650.863 371 C 650.799 361.925, 650.466 344.725, 650.123 332.779 L 649.500 311.058 636 318.887 M 563.750 330.728 L 560 331.121 559.998 341.810 C 559.997 347.690, 559.700 363.637, 559.338 377.250 L 558.680 402 571.180 402 C 578.055 402, 591.177 401.704, 600.340 401.343 L 617 400.686 617 365.343 L 617 330 592.250 330.168 C 578.638 330.261, 565.813 330.513, 563.750 330.728 M 445.750 331.749 L 423 332.038 423 368.676 L 423 405.314 439.660 404.657 C 448.823 404.296, 460.748 404, 466.160 404 L 476 404 476 367.500 L 476 331 472.250 331.230 C 470.188 331.357, 458.262 331.590, 445.750 331.749 M 481 367.417 L 481 403.834 508.250 403.387 C 523.237 403.141, 539.591 402.692, 544.592 402.389 L 553.684 401.837 554.340 377.169 C 554.701 363.601, 554.997 347.663, 554.998 341.750 L 555 331 518 331 L 481 331 481 367.417 M 712.141 360.107 L 704.783 364.188 705.364 371.344 C 705.684 375.280, 706.196 384.800, 706.503 392.500 C 706.809 400.200, 707.297 408.398, 707.586 410.718 L 708.113 414.936 713.994 411.260 C 717.229 409.238, 720.123 406.665, 720.424 405.542 C 721.266 402.409, 721.103 355.998, 720.250 356.013 C 719.837 356.020, 716.189 357.863, 712.141 360.107 M 677.658 378.338 L 656.816 389.500 657.332 415.841 C 657.617 430.329, 658.086 442.419, 658.374 442.708 C 658.663 442.997, 668.839 437.486, 680.988 430.462 L 703.076 417.691 702.570 413.595 C 702.292 411.343, 701.810 401.625, 701.499 392 C 700.908 373.702, 700.274 366.940, 699.162 367.088 C 698.798 367.136, 689.121 372.198, 677.658 378.338 M 636.252 400.778 L 622.005 408.500 622.002 436.250 C 622.001 451.512, 622.237 464, 622.526 464 C 622.815 464, 629.855 460.071, 638.171 455.270 L 653.290 446.540 652.649 432.520 C 652.296 424.809, 652.006 412.762, 652.004 405.750 C 652.002 398.738, 651.663 393.012, 651.250 393.028 C 650.837 393.043, 644.089 396.530, 636.252 400.778 M 513.722 408.029 C 496.244 408.411, 481.634 409.033, 481.256 409.410 C 480.878 409.788, 480.387 422.901, 480.164 438.549 L 479.759 467 515.879 467 L 552 467 552.125 460.250 C 552.193 456.538, 552.531 443.037, 552.875 430.248 L 553.500 406.997 549.500 407.166 C 547.300 407.259, 531.200 407.647, 513.722 408.029 M 558.687 407.750 C 558.450 408.163, 558.086 421.550, 557.878 437.500 L 557.500 466.500 587.250 466.765 L 617 467.030 617 437.673 L 617 408.317 597.339 407.658 C 571.596 406.796, 559.218 406.826, 558.687 407.750 M 434.250 409.747 L 423 410.066 423 438.533 L 423 467 449 467 L 475 467 475.007 444.750 C 475.011 432.512, 475.301 419.462, 475.652 415.750 L 476.289 409 460.895 409.214 C 452.428 409.331, 440.438 409.571, 434.250 409.747"
          stroke="none" fill="#000000" fill-rule="evenodd"/>
    <path d="M 488.257 224.507 C 487.023 225.151, 485.223 226.338, 484.257 227.145 C 483.291 227.953, 481.262 229.141, 479.750 229.785 C 478.238 230.430, 477 231.424, 477 231.994 C 477 232.766, 487.356 227.055, 490.917 224.320 C 492.159 223.366, 490.176 223.505, 488.257 224.507 M 463.279 239.905 C 460.958 241.332, 459.045 242.844, 459.029 243.264 C 459.007 243.854, 463.804 241.170, 467.917 238.292 C 468.146 238.131, 468.146 237.845, 467.917 237.655 C 467.688 237.466, 465.601 238.479, 463.279 239.905 M 423 299.609 L 423 327.218 448.918 326.858 C 463.173 326.660, 475.210 326.123, 475.668 325.666 C 476.730 324.604, 476.763 280.739, 475.705 275.750 L 474.909 272 448.955 272 L 423 272 423 299.609 M 481.991 293.750 C 481.987 305.712, 481.699 317.863, 481.352 320.750 L 480.721 326 518.329 326 L 555.936 326 556.218 299.415 C 556.373 284.794, 556.312 272.644, 556.083 272.415 C 555.854 272.187, 539.092 272, 518.833 272 L 482 272 481.991 293.750 M 561.655 285.658 C 561.295 293.170, 561 305.381, 561 312.794 L 561 326.272 565.640 325.636 C 568.191 325.286, 580.791 325, 593.640 325 L 617 325 617 298.500 L 617 272 589.655 272 L 562.310 272 561.655 285.658 M 563.750 330.728 L 560 331.121 559.998 341.810 C 559.997 347.690, 559.700 363.637, 559.338 377.250 L 558.680 402 571.180 402 C 578.055 402, 591.177 401.704, 600.340 401.343 L 617 400.686 617 365.343 L 617 330 592.250 330.168 C 578.638 330.261, 565.813 330.513, 563.750 330.728 M 445.750 331.749 L 423 332.038 423 368.676 L 423 405.314 439.660 404.657 C 448.823 404.296, 460.748 404, 466.160 404 L 476 404 476 367.500 L 476 331 472.250 331.230 C 470.188 331.357, 458.262 331.590, 445.750 331.749 M 481 367.417 L 481 403.834 508.250 403.387 C 523.237 403.141, 539.591 402.692, 544.592 402.389 L 553.684 401.837 554.340 377.169 C 554.701 363.601, 554.997 347.663, 554.998 341.750 L 555 331 518 331 L 481 331 481 367.417 M 513.722 408.029 C 496.244 408.411, 481.634 409.033, 481.256 409.410 C 480.878 409.788, 480.387 422.901, 480.164 438.549 L 479.759 467 515.879 467 L 552 467 552.125 460.250 C 552.193 456.538, 552.531 443.037, 552.875 430.248 L 553.500 406.997 549.500 407.166 C 547.300 407.259, 531.200 407.647, 513.722 408.029 M 558.687 407.750 C 558.450 408.163, 558.086 421.550, 557.878 437.500 L 557.500 466.500 587.250 466.765 L 617 467.030 617 437.673 L 617 408.317 597.339 407.658 C 571.596 406.796, 559.218 406.826, 558.687 407.750 M 434.250 409.747 L 423 410.066 423 438.533 L 423 467 449 467 L 475 467 475.007 444.750 C 475.011 432.512, 475.301 419.462, 475.652 415.750 L 476.289 409 460.895 409.214 C 452.428 409.331, 440.438 409.571, 434.250 409.747"
          stroke="none" fill="#3f48cb" fill-rule="evenodd"/>
    <path d="M 534.036 209.716 C 528.281 209.913, 523.331 210.413, 523.036 210.826 C 522.741 211.239, 520.925 212.565, 519 213.772 L 515.500 215.966 526 216.072 C 531.775 216.130, 538.893 216.384, 541.818 216.637 C 546.377 217.032, 547.769 216.697, 551.566 214.299 C 556.729 211.037, 557.105 210, 553.125 210 C 551.544 210, 548.956 209.855, 547.375 209.678 C 545.794 209.501, 539.791 209.518, 534.036 209.716 M 560.624 213.779 L 556.749 216.437 559.624 217.128 C 561.206 217.507, 577.233 218.300, 595.239 218.890 L 627.978 219.963 634.027 216.138 L 640.076 212.314 626.380 211.657 C 618.847 211.296, 601.842 211.027, 588.592 211.060 L 564.500 211.120 560.624 213.779 M 643.644 215.900 L 637.788 219.793 648.144 220.366 C 673.165 221.750, 692.857 222.040, 693.479 221.034 C 693.830 220.465, 695.049 220, 696.187 220 C 697.325 220, 700.786 218.537, 703.878 216.750 L 709.500 213.500 697.500 212.886 C 690.900 212.548, 677.400 212.212, 667.500 212.139 L 649.500 212.006 643.644 215.900 M 511 220.803 C 507.442 221.043, 503.417 222.927, 491.774 229.803 C 483.674 234.586, 477.037 238.867, 477.024 239.315 C 477.011 239.763, 485.571 240.032, 496.047 239.911 L 515.095 239.692 527.470 231.096 C 534.277 226.368, 539.543 222.189, 539.173 221.810 C 538.431 221.049, 518.124 220.323, 511 220.803 M 536.161 230.821 L 523.823 239.500 529.661 240.229 C 532.873 240.631, 548.203 241.466, 563.728 242.087 L 591.957 243.215 605.703 234.357 L 619.449 225.500 612.475 224.864 C 608.639 224.515, 594.925 223.938, 582 223.582 C 569.075 223.226, 556.250 222.756, 553.500 222.538 C 548.602 222.149, 548.249 222.318, 536.161 230.821 M 615.833 233.721 C 608.316 238.526, 602.335 242.733, 602.542 243.068 C 602.750 243.404, 613.582 243.979, 626.615 244.346 C 639.648 244.713, 650.804 245.409, 651.406 245.892 C 652.097 246.448, 658.265 243.407, 668.153 237.636 L 683.807 228.500 680.153 227.863 C 678.144 227.513, 667.050 226.928, 655.500 226.564 C 643.950 226.200, 633.375 225.696, 632 225.443 C 630.115 225.097, 626.136 227.134, 615.833 233.721 M 449.308 255.603 L 430.524 267 452.639 267 C 471.078 267, 474.962 266.751, 476 265.500 C 476.685 264.675, 477.912 264, 478.728 264 C 480.291 264, 507.297 245.621, 506.160 245.332 C 505.797 245.240, 497.083 244.949, 486.796 244.686 L 468.092 244.207 449.308 255.603 M 499.861 256.233 L 485.223 266.500 520.026 266.763 L 554.830 267.025 569.299 257.763 L 583.768 248.500 575.656 247.871 C 571.195 247.525, 555.609 246.955, 541.022 246.604 L 514.500 245.966 499.861 256.233 M 579.106 257.350 L 564.833 266.500 591.324 266.766 L 617.815 267.032 631.990 258.766 L 646.164 250.500 637.832 249.850 C 633.249 249.492, 621.373 248.975, 611.440 248.700 L 593.380 248.200 579.106 257.350"
          stroke="none" fill="#e2d600" fill-rule="evenodd"/>
    <path d="M 709 219.394 C 699.467 225.054, 698.500 225.898, 698.500 228.564 C 698.500 237.369, 700.331 271.720, 700.879 273.202 C 701.440 274.717, 702.776 274.223, 711.261 269.358 L 721 263.774 721 238.387 C 721 224.424, 720.663 213.036, 720.250 213.079 C 719.837 213.123, 714.775 215.964, 709 219.394 M 672.727 240.722 L 652.953 252.247 653.614 276.873 C 653.978 290.418, 654.403 301.652, 654.559 301.838 C 654.909 302.255, 693.044 280.183, 694.670 278.623 C 695.563 277.766, 695.528 271.865, 694.522 253.685 C 693.797 240.587, 693.046 229.719, 692.852 229.534 C 692.658 229.349, 683.602 234.383, 672.727 240.722 M 634.750 262.947 L 622 270.456 622 295.827 L 622 321.198 625.250 319.302 C 627.038 318.259, 633.112 314.737, 638.750 311.475 L 649 305.544 648.894 289.022 C 648.836 279.935, 648.498 268.661, 648.144 263.969 L 647.500 255.438 634.750 262.947 M 710.802 275.333 C 706.017 278.175, 701.838 280.779, 701.514 281.120 C 700.944 281.721, 703.446 339.113, 704.593 351.759 L 705.161 358.017 713.081 353.897 L 721 349.777 721 309.889 C 721 287.950, 720.663 270.037, 720.250 270.083 C 719.837 270.129, 715.586 272.492, 710.802 275.333 M 674.777 296.308 C 657.059 306.620, 654.117 308.668, 654.483 310.434 C 654.719 311.570, 655.209 328.587, 655.572 348.250 C 655.935 367.913, 656.429 384, 656.669 384 C 657.326 384, 698.379 361.905, 699.279 361.066 C 700.016 360.381, 697.765 309.870, 696.218 292.374 L 695.500 284.248 674.777 296.308 M 636 318.887 L 622.500 326.716 622.238 364.358 C 622.094 385.061, 622.264 402, 622.616 402 C 622.967 402, 629.493 398.738, 637.118 394.750 L 650.980 387.500 650.863 371 C 650.799 361.925, 650.466 344.725, 650.123 332.779 L 649.500 311.058 636 318.887 M 712.141 360.107 L 704.783 364.188 705.364 371.344 C 705.684 375.280, 706.196 384.800, 706.503 392.500 C 706.809 400.200, 707.297 408.398, 707.586 410.718 L 708.113 414.936 713.994 411.260 C 717.229 409.238, 720.123 406.665, 720.424 405.542 C 721.266 402.409, 721.103 355.998, 720.250 356.013 C 719.837 356.020, 716.189 357.863, 712.141 360.107 M 677.658 378.338 L 656.816 389.500 657.332 415.841 C 657.617 430.329, 658.086 442.419, 658.374 442.708 C 658.663 442.997, 668.839 437.486, 680.988 430.462 L 703.076 417.691 702.570 413.595 C 702.292 411.343, 701.810 401.625, 701.499 392 C 700.908 373.702, 700.274 366.940, 699.162 367.088 C 698.798 367.136, 689.121 372.198, 677.658 378.338 M 636.252 400.778 L 622.005 408.500 622.002 436.250 C 622.001 451.512, 622.237 464, 622.526 464 C 622.815 464, 629.855 460.071, 638.171 455.270 L 653.290 446.540 652.649 432.520 C 652.296 424.809, 652.006 412.762, 652.004 405.750 C 652.002 398.738, 651.663 393.012, 651.250 393.028 C 650.837 393.043, 644.089 396.530, 636.252 400.778"
          stroke="none" fill="#ec1c24" fill-rule="evenodd"/>
</svg>